<?xml version="1.0" standalone="no"?>
<!DOCTYPE svg PUBLIC "-//W3C//DTD SVG 20010904//EN"
 "http://www.w3.org/TR/2001/REC-SVG-20010904/DTD/svg10.dtd">
<svg version="1.0" xmlns="http://www.w3.org/2000/svg"
 width="500.000000pt" height="500.000000pt" viewBox="0 0 500.000000 500.000000"
 preserveAspectRatio="xMidYMid meet">
<metadata>
Created by potrace 1.14, written by Peter Selinger 2001-2017
</metadata>
<g transform="translate(0.000000,500.000000) scale(0.100000,-0.100000)"
fill="#000000" stroke="none">
<path d="M954 4795 c-114 -25 -186 -81 -242 -189 l-37 -71 0 -2015 0 -2015 25
-50 c55 -110 117 -166 222 -201 l70 -24 1448 0 1448 0 70 24 c105 35 167 91
222 201 l25 50 0 2015 0 2015 -40 75 c-47 87 -116 149 -197 177 -50 17 -138
18 -1503 20 -1182 1 -1461 -1 -1511 -12z m3018 -52 c71 -33 142 -104 170 -171
l23 -57 0 -690 c0 -970 -7 -2229 -13 -2428 -4 -151 -6 -167 -23 -167 -29 0
-49 11 -49 27 0 8 -14 28 -31 44 -27 25 -39 29 -88 29 -71 0 -91 11 -56 30 19
10 22 16 13 22 -10 7 -10 11 3 21 9 6 17 17 19 22 1 6 7 21 13 35 5 14 11 32
13 40 1 8 5 26 8 39 7 30 -24 142 -41 148 -7 3 -13 16 -13 29 0 13 -5 24 -11
24 -6 0 -9 7 -5 15 4 10 -1 15 -15 15 -16 0 -19 4 -14 20 5 14 2 20 -9 20 -13
0 -16 15 -16 90 0 69 3 90 14 90 13 0 66 125 69 164 2 14 -9 23 -40 33 l-43
15 0 80 0 80 64 -7 c46 -5 66 -4 71 5 4 7 10 53 13 101 l4 89 -76 0 -76 0 0
79 c0 89 -4 84 83 96 48 6 48 7 42 38 -31 161 -34 165 -89 142 l-38 -16 2 108
c1 59 1 113 1 118 -4 68 -7 473 -4 483 3 8 30 12 85 12 79 0 81 1 114 36 33
34 34 38 34 120 0 139 -23 166 -149 174 l-86 5 -5 135 c-5 122 -8 141 -33 192
-30 61 -74 105 -140 140 l-42 23 -1185 0 -1185 0 -54 -30 c-67 -37 -115 -92
-142 -164 -21 -56 -21 -66 -26 -1533 l-6 -1478 -147 0 -148 0 -6 233 c-3 127
-7 869 -9 1647 l-2 1415 26 55 c42 88 133 162 222 180 23 4 699 7 1502 7
l1460 -2 47 -22z m-336 -362 c55 -25 111 -76 137 -125 18 -35 22 -61 25 -178
l4 -138 -87 0 c-141 0 -165 -24 -165 -165 0 -141 24 -165 165 -165 l85 0 0
-202 c0 -186 -1 -201 -16 -180 -8 12 -20 22 -26 22 -5 0 -42 -23 -82 -52 -193
-140 -246 -182 -246 -193 0 -7 7 -18 15 -25 22 -18 18 -39 -10 -52 -14 -6 -25
-15 -25 -19 0 -4 -10 -11 -22 -15 -13 -4 -39 -17 -60 -30 l-36 -23 -42 54
c-23 30 -47 55 -53 55 -6 0 88 99 208 220 121 121 221 226 222 233 2 12 -118
117 -134 117 -4 0 -51 -60 -103 -132 -52 -72 -105 -143 -118 -159 l-23 -28
-33 20 -34 20 -20 -28 c-10 -15 -36 -58 -56 -94 l-37 -67 -67 26 c-37 14 -68
26 -69 27 -1 1 9 46 22 100 14 55 25 105 25 112 0 6 -18 14 -40 18 -31 5 -40
11 -36 23 5 20 18 89 21 117 2 11 11 75 20 143 10 67 16 124 14 126 -2 2 -43
6 -91 9 l-88 5 0 -314 c0 -243 -3 -316 -12 -318 -7 -3 -43 -7 -79 -10 l-66 -6
-22 87 c-31 121 -31 116 12 127 36 9 38 12 32 40 -3 17 -17 101 -30 186 -13
86 -27 164 -31 174 -8 20 -27 18 -127 -11 -44 -13 -56 -21 -52 -32 20 -49 105
-326 107 -347 3 -23 -3 -28 -50 -46 -29 -11 -55 -18 -57 -16 -2 1 -38 71 -82
154 -43 83 -85 161 -93 173 l-15 22 -69 -43 c-38 -24 -71 -48 -73 -54 -3 -9
36 -67 188 -277 l41 -57 35 21 c19 12 35 20 37 18 2 -2 26 -43 54 -91 l51 -87
-60 -46 -61 -46 -223 221 -222 222 -57 -67 c-31 -36 -56 -72 -55 -78 0 -7 55
-51 123 -100 67 -48 137 -100 155 -115 l34 -28 -18 -33 c-9 -18 -13 -37 -8
-41 4 -5 45 -31 90 -58 77 -46 81 -51 68 -69 -8 -11 -22 -40 -31 -64 -10 -24
-18 -45 -19 -46 -2 -4 -127 27 -138 34 -6 4 -24 8 -39 10 -25 3 -28 -1 -34
-37 -7 -45 -6 -44 -89 -29 -33 5 -73 12 -90 14 -90 13 -85 7 -85 101 0 46 2
84 5 84 2 0 65 -20 138 -45 74 -25 138 -45 143 -45 8 0 57 111 51 115 -27 21
-355 179 -369 178 -10 -1 -22 5 -25 14 -9 24 -103 63 -151 63 -80 0 -145 -40
-185 -115 -22 -39 -22 -51 -25 -522 -2 -311 1 -496 7 -521 45 -164 262 -210
367 -78 l27 34 38 -62 c20 -33 44 -62 53 -64 8 -2 57 26 108 62 51 36 108 76
126 88 112 79 114 81 86 124 -20 30 -18 32 61 80 l60 35 15 -22 c8 -13 29 -41
45 -63 l30 -40 -36 -33 c-20 -18 -42 -33 -48 -33 -6 0 -11 -5 -11 -11 0 -5
-13 -15 -29 -20 -20 -7 -28 -15 -24 -25 4 -10 -2 -17 -16 -21 -11 -3 -18 -9
-15 -14 3 -5 -8 -9 -24 -9 -25 0 -29 -3 -25 -20 4 -14 0 -20 -12 -20 -20 0
-45 -23 -45 -43 0 -8 -11 -25 -25 -38 -13 -13 -25 -28 -25 -32 0 -5 -16 -27
-35 -50 -39 -45 -42 -59 -19 -78 9 -7 14 -22 11 -36 -2 -13 0 -26 5 -29 4 -3
6 -10 2 -15 -3 -5 0 -16 6 -24 10 -12 9 -15 -6 -15 -14 0 -15 -3 -6 -12 17
-17 15 -28 -4 -28 -8 0 -12 -4 -9 -10 4 -6 -10 -10 -35 -10 -38 0 -40 -2 -30
-20 11 -20 8 -20 -379 -20 l-389 0 -8 68 c-5 37 -9 663 -9 1392 l0 1325 22 41
c26 49 82 100 137 125 39 18 94 19 1196 19 1102 0 1157 -1 1196 -19z m384
-516 c10 -19 14 -50 12 -85 l-4 -55 -213 0 c-242 0 -225 -6 -225 84 0 32 6 51
22 68 22 23 24 23 207 21 l186 -3 15 -30z m-2442 -760 c22 -9 49 -30 61 -46
22 -29 22 -32 7 -70 -23 -56 -21 -77 9 -85 24 -6 25 -9 25 -96 l0 -90 -52 4
-52 3 -7 -40 c-3 -22 -9 -63 -12 -92 l-6 -52 57 -3 57 -3 3 -65 c4 -86 -3
-110 -31 -110 -42 0 -67 -12 -67 -31 0 -17 -9 -19 -103 -19 l-104 0 -6 137
c-12 248 -9 537 7 574 36 85 124 120 214 84z m1200 -24 c5 -32 -4 -39 -70 -49
l-57 -9 -11 30 c-12 36 -11 38 37 48 67 13 98 7 101 -20z m254 -31 c27 -13 27
-14 12 -40 l-16 -26 -59 20 c-64 23 -64 23 -49 60 9 25 10 25 47 12 21 -8 50
-19 65 -26z m766 -82 l-3 -91 -40 -14 c-89 -32 -200 -62 -206 -55 -4 4 -16 28
-27 53 l-20 47 122 62 c66 35 130 69 141 76 11 8 23 14 28 14 4 0 6 -41 5 -92z
m-1288 23 c0 -9 -24 -31 -52 -49 -46 -29 -53 -31 -66 -18 -19 18 -8 34 52 78
41 29 66 25 66 -11z m150 -7 c0 -8 -5 -12 -10 -9 -6 4 -8 11 -5 16 9 14 15 11
15 -7z m-102 -59 c-3 -3 -9 2 -12 12 -6 14 -5 15 5 6 7 -7 10 -15 7 -18z m219
14 c6 -6 41 -12 79 -13 68 -3 128 -21 118 -37 -6 -10 78 -67 92 -62 12 4 69
-65 60 -74 -3 -3 -23 11 -45 32 -90 86 -188 119 -332 113 -92 -3 -103 -6 -177
-45 -58 -30 -79 -37 -79 -26 0 18 55 60 82 61 28 1 95 25 95 35 0 21 88 35
107 16z m453 -50 c37 -47 43 -69 19 -69 -5 0 -29 20 -52 45 -31 32 -41 49 -35
60 14 24 25 18 68 -36z m-116 -14 c-4 -9 -16 -21 -28 -27 -19 -10 -19 -9 3 16
28 30 33 32 25 11z m-809 -64 c3 -5 1 -12 -5 -16 -6 -4 -22 -29 -35 -56 -14
-27 -30 -49 -35 -49 -14 0 -13 6 16 71 25 55 45 72 59 50z m588 -80 c45 -22
117 -99 117 -125 0 -6 -5 -2 -11 9 -18 33 -71 76 -118 98 -83 37 -225 18 -270
-36 -7 -10 -18 -17 -24 -17 -6 0 0 12 14 26 69 74 192 93 292 45z m667 -26
c13 -40 14 -40 140 -21 47 8 88 11 91 7 3 -3 4 -36 1 -73 l-4 -68 -203 0 -202
0 -9 63 c-4 34 -8 66 -8 71 -1 5 13 14 29 19 156 46 150 46 165 2z m-212 -95
c1 -32 0 -31 -13 15 -7 27 -10 54 -7 60 8 13 20 -31 20 -75z m-961 -12 c-3 -7
-5 -2 -5 12 0 14 2 19 5 13 2 -7 2 -19 0 -25z m-309 -68 l92 0 0 -75 0 -74
-37 -10 c-129 -32 -123 -31 -134 -4 -5 13 -9 28 -9 33 0 18 -18 17 -138 -4
-67 -13 -124 -20 -127 -18 -8 8 -6 148 3 157 4 4 63 5 132 1 69 -3 167 -6 218
-6z m1099 -27 c-3 -10 -5 -4 -5 12 0 17 2 24 5 18 2 -7 2 -21 0 -30z m63 -83
c0 -5 -2 -10 -4 -10 -3 0 -8 5 -11 10 -3 6 -1 10 4 10 6 0 11 -4 11 -10z
m-920 -10 c0 -5 -4 -10 -10 -10 -5 0 -10 5 -10 10 0 6 5 10 10 10 6 0 10 -4
10 -10z m1383 -20 l87 -12 0 -74 c0 -53 -4 -74 -12 -74 -12 0 -115 30 -206 58
-28 9 -34 8 -39 -6 -3 -9 -14 -36 -25 -60 -11 -24 -19 -45 -17 -47 5 -5 142
-78 219 -117 l65 -33 3 -49 3 -48 -43 5 c-95 11 -143 28 -211 74 -38 27 -72
54 -74 61 -3 6 3 24 12 39 17 25 17 27 -1 40 -11 8 -45 28 -76 44 -31 16 -59
32 -61 36 -9 15 42 148 55 146 7 -1 47 -11 88 -22 95 -26 100 -26 100 3 0 38
11 57 29 52 9 -2 55 -10 104 -16z m-573 -54 c0 -2 -7 -9 -15 -16 -13 -11 -14
-10 -9 4 5 14 24 23 24 12z m-1107 -107 c10 -28 15 -55 10 -59 -11 -11 -298
-160 -307 -160 -4 0 -5 41 -4 92 l3 92 130 42 c72 23 135 43 140 43 6 1 18
-22 28 -50z m1055 37 c-7 -8 -15 -12 -17 -11 -5 6 10 25 20 25 5 0 4 -6 -3
-14z m-588 -26 c-6 -11 -20 -25 -33 -31 -18 -10 -17 -6 7 20 34 36 41 39 26
11z m490 -44 c0 -3 -4 -8 -10 -11 -5 -3 -10 -1 -10 4 0 6 5 11 10 11 6 0 10
-2 10 -4z m-427 -51 c-3 -9 -8 -14 -10 -11 -3 3 -2 9 2 15 9 16 15 13 8 -4z
m217 -5 c-20 -13 -50 -13 -50 0 0 6 15 10 33 10 24 0 28 -3 17 -10z m255 -20
c3 -5 1 -10 -4 -10 -6 0 -11 5 -11 10 0 6 2 10 4 10 3 0 8 -4 11 -10z m282
-116 c84 -92 96 -114 64 -114 -11 0 -23 -4 -26 -10 -10 -16 -67 -11 -80 7 -11
15 -15 15 -47 -5 l-36 -22 -43 66 -42 66 34 26 c18 15 45 37 59 49 14 12 28
23 32 23 3 0 42 -39 85 -86z m-650 54 c-3 -8 -6 -5 -6 6 -1 11 2 17 5 13 3 -3
4 -12 1 -19z m258 13 c3 -5 1 -12 -5 -16 -5 -3 -10 1 -10 9 0 18 6 21 15 7z
m-392 -119 c58 -22 81 -42 49 -42 -12 0 -22 -4 -22 -10 0 -5 -20 -10 -45 -10
-49 0 -58 11 -22 28 21 10 20 11 -11 11 -30 1 -31 3 -20 21 15 24 12 24 71 2z
m420 -54 c2 -13 8 -31 12 -40 6 -16 0 -18 -60 -18 -73 0 -105 12 -105 39 0 16
25 24 136 39 7 1 14 -8 17 -20z m1052 -624 c26 -10 40 -55 37 -115 l-4 -54
-213 0 c-241 0 -225 -6 -225 83 0 32 6 49 25 67 24 25 27 25 194 25 93 0 177
-3 186 -6z"/>
<path d="M3136 3648 c-8 -24 -37 -110 -65 -192 l-49 -148 54 -24 c30 -13 58
-24 62 -24 14 0 186 360 176 369 -13 13 -130 61 -148 61 -8 0 -21 -19 -30 -42z"/>
</g>
</svg>
